Coordinates
version=1
nRows=22
nColumns=33
inDegrees=yes

Units are S.I. units (second, meters, Newtons, ...)
Angles are in degrees.

endheader
time	ground_thorax_rot_x	ground_thorax_rot_y	ground_thorax_rot_z	ground_thorax_tx	ground_thorax_ty	ground_thorax_tz	clav_prot_r	clav_elev_r	scapula_abduction_r	scapula_elevation_r	scapula_upward_rot_r	scapula_winging_r	shoulder_elv_r	plane_of_elev_r	axial_rot_r	elbow_flexion_r	pro_sup_r	wrist_flex_r	wrist_dev_r	clav_prot_l	clav_elev_l	scapula_abduction_l	scapula_elevation_l	scapula_upward_rot_l	scapula_winging_l	shoulder_elv_l	plane_of_elev_l	axial_rot_l	elbow_flexion_l	pro_sup_l	wrist_flex_l	wrist_dev_l	
10.6000	35.647723	15.421505	15.495167	-99.517076	775.094198	8.496498	-1.334279	36.194112	45.000000	35.881568	25.461846	-831.745396	-2461.606150	17.966353	-180.000000	2166.656014	-108.921712	14.761284	10.387108	-1.384758	-45.000000	-45.000000	45.000000	5.338182	-977.443240	-2444.463635	13.841619	180.000000	-715.855638	-140.666627	7.810985	-14.654973	
10.6100	35.409356	15.378069	15.711473	-100.336784	774.366465	6.807808	-1.337191	36.301672	45.000000	36.056561	25.296369	-831.736011	-2461.548733	17.959444	-180.000000	2166.761570	-109.763377	14.848944	10.492997	-1.464947	-45.000000	-45.000000	45.000000	5.816675	-977.067709	-2444.072501	13.875854	180.000000	-715.565843	-142.265858	7.907269	-14.530990	
10.6200	35.327437	15.361484	15.758116	-101.594015	774.148389	5.723800	-1.373116	36.431454	45.000000	36.274255	25.295298	-831.790249	-2461.489510	17.956441	-180.000000	2166.847869	-110.440558	14.933515	10.587226	-1.523388	-45.000000	-45.000000	45.000000	6.233119	-976.755620	-2443.798914	13.890654	180.000000	-715.358577	-143.300396	7.997514	-14.503605	
10.6300	35.371791	15.364193	15.671645	-103.210164	774.363256	5.139831	-1.421384	36.579627	45.000000	36.523525	25.422460	-831.894562	-2461.431088	17.960324	-180.000000	2166.919246	-110.970130	15.018532	10.672788	-1.577152	-45.000000	-45.000000	45.000000	6.624339	-976.477514	-2443.619552	13.891045	180.000000	-715.226010	-143.817645	8.082280	-14.549250	
10.6400	35.518816	15.388141	15.491554	-105.122225	774.945515	4.970356	-1.479759	36.739965	45.000000	36.799600	25.647867	-832.035640	-2461.371423	17.967824	-180.000000	2166.973694	-111.370635	15.101069	10.748413	-1.632541	-45.000000	-45.000000	45.000000	7.018933	-976.210138	-2443.513573	13.871886	180.000000	-715.152361	-143.885622	8.156685	-14.642377	
10.6500	35.662171	15.414428	15.332015	-107.057234	775.568780	4.793940	-1.526294	36.908339	45.000000	37.076753	25.865964	-832.175773	-2461.307249	17.975270	-180.000000	2167.028364	-111.755233	15.183748	10.824719	-1.706336	-45.000000	-45.000000	45.000000	7.460966	-975.915662	-2443.394053	13.848312	180.000000	-715.080450	-143.893355	8.225081	-14.712670	
10.6600	35.802096	15.445818	15.193984	-109.017856	776.229929	4.613492	-1.572845	37.069613	45.000000	37.349746	26.070543	-832.304038	-2461.229707	17.979004	-180.000000	2167.077108	-112.130277	15.260078	10.896561	-1.789330	-45.000000	-45.000000	45.000000	7.940471	-975.605668	-2443.256890	13.815663	180.000000	-715.001060	-143.888914	8.287842	-14.761966	
10.6700	35.946032	15.480733	15.064833	-111.003927	776.927079	4.431070	-1.617031	37.246638	45.000000	37.630634	26.268919	-832.434244	-2461.145865	17.982593	-180.000000	2167.124165	-112.499922	15.336006	10.968028	-1.879890	-45.000000	-45.000000	45.000000	8.443419	-975.290732	-2443.112299	13.777542	180.000000	-714.912579	-143.901176	8.351053	-14.797659	
10.6800	36.095587	15.514182	14.941265	-113.012997	777.659517	4.248164	-1.660805	37.414015	45.000000	37.915748	26.461434	-832.558139	-2461.054290	17.983911	-180.000000	2167.165464	-112.866908	15.407739	11.036239	-1.972215	-45.000000	-45.000000	45.000000	8.961660	-974.973557	-2442.961753	13.737728	180.000000	-714.814614	-143.950306	8.416295	-14.819100	
10.6900	36.253155	15.546914	14.819349	-115.041704	778.426862	4.066705	-1.704018	37.594532	45.000000	38.213863	26.655450	-832.689831	-2460.961087	17.985980	-180.000000	2167.208503	-113.232709	15.480531	11.106010	-2.066121	-45.000000	-45.000000	45.000000	9.487431	-974.659907	-2442.809673	13.695767	180.000000	-714.710838	-144.051153	8.487442	-14.831229	
10.7000	36.415733	15.577503	14.701954	-117.086642	779.228874	3.889316	-1.749389	37.767580	45.000000	38.516865	26.850696	-832.817890	-2460.859316	17.982391	-180.000000	2167.248284	-113.598917	15.544563	11.171332	-2.157879	-45.000000	-45.000000	45.000000	10.014971	-974.349822	-2442.653622	13.654510	180.000000	-714.603882	-144.214056	8.563215	-14.831965	
10.7100	36.584027	15.606744	14.586415	-119.144858	780.065065	3.719487	-1.795117	37.954335	45.000000	38.830576	27.052054	-832.958102	-2460.756773	17.980945	-180.000000	2167.290928	-113.967405	15.609372	11.238519	-2.247275	-45.000000	-45.000000	45.000000	10.538839	-974.046969	-2442.496093	13.614285	180.000000	-714.496705	-144.444366	8.646893	-14.826235	
10.7200	36.754058	15.638076	14.479758	-121.213602	780.934960	3.560922	-1.844658	38.142797	45.000000	39.148511	27.260545	-833.101365	-2460.645485	17.971467	-180.000000	2167.328802	-114.340643	15.660862	11.298692	-2.331312	-45.000000	-45.000000	45.000000	11.053593	-973.748497	-2442.335698	13.575880	180.000000	-714.392055	-144.744093	8.735119	-14.810858	
10.7300	36.925894	15.676021	14.382727	-123.290476	781.837953	3.417145	-1.894538	38.347524	45.000000	39.475649	27.475122	-833.264143	-2460.531175	17.963006	-180.000000	2167.367340	-114.721814	15.711086	11.358974	-2.409076	-45.000000	-45.000000	45.000000	11.553364	-973.457564	-2442.174130	13.538618	180.000000	-714.292170	-145.111998	8.829703	-14.789376	
10.7400	37.097038	15.738909	14.317407	-125.373745	782.773400	3.290955	-1.947957	38.573405	45.000000	39.820013	27.693259	-833.448078	-2460.406852	17.937168	-180.000000	2167.401740	-115.116478	15.740288	11.408592	-2.476310	-45.000000	-45.000000	45.000000	12.029662	-973.164721	-2442.011068	13.498515	180.000000	-714.193541	-145.547139	8.923402	-14.754568	
10.7500	37.267713	15.824367	14.281948	-127.462129	783.740393	3.184051	-1.999645	38.828971	45.000000	40.180968	27.906760	-833.656201	-2460.277304	17.907850	-180.000000	2167.442730	-115.529395	15.760494	11.456629	-2.531672	-45.000000	-45.000000	45.000000	12.474163	-972.875806	-2441.845034	13.457912	180.000000	-714.094110	-146.044930	9.018903	-14.709511	
10.7600	37.436791	15.926074	14.272077	-129.555331	784.737881	3.096813	-2.052710	39.099328	45.000000	40.551489	28.117763	-833.874101	-2460.138079	17.867267	-180.000000	2167.483180	-115.962043	15.763486	11.497419	-2.576340	-45.000000	-45.000000	45.000000	12.888679	-972.592973	-2441.675330	13.416475	180.000000	-713.995086	-146.594639	9.115177	-14.654651	
10.7700	37.606771	16.018655	14.260007	-131.653584	785.764342	3.028267	-2.104198	39.369746	45.000000	40.918540	28.329766	-834.092795	-2459.995643	17.834835	-180.000000	2167.527545	-116.409839	15.770182	11.542328	-2.614710	-45.000000	-45.000000	45.000000	13.279904	-972.328265	-2441.502845	13.380536	180.000000	-713.900132	-147.177728	9.218706	-14.598899	
10.7800	37.777650	16.092004	14.236231	-133.757941	786.817898	2.976346	-2.159615	39.625047	45.000000	41.277857	28.554970	-834.304800	-2459.850279	17.802572	-180.000000	2167.568840	-116.864568	15.776813	11.587391	-2.650250	-45.000000	-45.000000	45.000000	13.658511	-972.081145	-2441.328616	13.348849	180.000000	-713.810610	-147.773382	9.328056	-14.544480	
10.7900	37.951604	16.125191	14.179983	-135.869849	787.896111	2.938154	-2.218150	39.855972	45.000000	41.618078	28.795934	-834.499705	-2459.705735	17.788206	-180.000000	2167.614297	-117.315000	15.795643	11.640482	-2.684332	-45.000000	-45.000000	45.000000	14.030485	-971.856985	-2441.154596	13.328452	180.000000	-713.727533	-148.360842	9.446327	-14.497582	
10.8000	38.126101	16.118441	14.091608	-137.990401	788.996015	2.910820	-2.283297	40.052242	45.000000	41.939252	29.060989	-834.680936	-2459.562434	17.780781	-180.000000	2167.653448	-117.750283	15.825066	11.697323	-2.720277	-45.000000	-45.000000	45.000000	14.405193	-971.652229	-2440.979772	13.314979	180.000000	-713.653750	-148.922200	9.570793	-14.460669	
10.8100	38.303575	16.077547	13.976640	-140.118711	790.113756	2.892277	-2.354209	40.226564	45.000000	42.247591	29.348274	-834.855582	-2459.420393	17.784960	-180.000000	2167.692250	-118.162565	15.865095	11.759227	-2.755648	-45.000000	-45.000000	45.000000	14.781183	-971.460862	-2440.807868	13.308660	180.000000	-713.586190	-149.446931	9.698839	-14.433661	
